<mxfile host="65bd71144e">
    <diagram id="yzknyQEGlie9Dj_gzy_1" name="Page-1">
        <mxGraphModel dx="901" dy="522" grid="1" gridSize="10" guides="1" tooltips="1" connect="1" arrows="1" fold="1" page="1" pageScale="1" pageWidth="827" pageHeight="1169" math="0" shadow="0">
            <root>
                <mxCell id="0"/>
                <mxCell id="1" parent="0"/>
                <mxCell id="156" style="edgeStyle=orthogonalEdgeStyle;rounded=0;html=1;entryX=0;entryY=0.57;entryDx=0;entryDy=0;entryPerimeter=0;fontSize=13;fontColor=#FFFFFF;endArrow=none;endFill=0;" parent="1" source="3" target="154" edge="1">
                    <mxGeometry relative="1" as="geometry"/>
                </mxCell>
                <mxCell id="3" value="" style="pointerEvents=1;verticalLabelPosition=bottom;shadow=0;dashed=0;align=center;html=1;verticalAlign=top;shape=mxgraph.electrical.resistors.resistor_2;direction=east;" parent="1" vertex="1">
                    <mxGeometry x="277.25" y="655" width="100" height="20" as="geometry"/>
                </mxCell>
                <mxCell id="152" style="edgeStyle=orthogonalEdgeStyle;rounded=0;html=1;exitX=0;exitY=0.5;exitDx=0;exitDy=0;entryX=0;entryY=0.5;entryDx=0;entryDy=0;fontSize=13;fontColor=#FFFFFF;endArrow=none;endFill=0;" parent="1" source="7" target="23" edge="1">
                    <mxGeometry relative="1" as="geometry"/>
                </mxCell>
                <mxCell id="165" style="edgeStyle=orthogonalEdgeStyle;rounded=0;html=1;exitX=1;exitY=0.5;exitDx=0;exitDy=0;entryX=0.5;entryY=1;entryDx=0;entryDy=0;fontSize=13;fontColor=#FFFFFF;endArrow=none;endFill=0;startArrow=none;" parent="1" source="169" target="150" edge="1">
                    <mxGeometry relative="1" as="geometry">
                        <Array as="points">
                            <mxPoint x="170" y="370"/>
                        </Array>
                    </mxGeometry>
                </mxCell>
                <mxCell id="7" value="" style="pointerEvents=1;verticalLabelPosition=bottom;shadow=0;dashed=0;align=center;html=1;verticalAlign=top;shape=mxgraph.electrical.miscellaneous.batteryStack;direction=north;" parent="1" vertex="1">
                    <mxGeometry x="140" y="395" width="60" height="100" as="geometry"/>
                </mxCell>
                <mxCell id="10" value="5 V" style="text;html=1;align=center;verticalAlign=middle;resizable=0;points=[];autosize=1;strokeColor=none;fillColor=none;" parent="1" vertex="1">
                    <mxGeometry x="195" y="425" width="40" height="30" as="geometry"/>
                </mxCell>
                <mxCell id="11" value="-" style="text;html=1;align=center;verticalAlign=middle;resizable=0;points=[];autosize=1;strokeColor=none;fillColor=none;" parent="1" vertex="1">
                    <mxGeometry x="190" y="465" width="30" height="30" as="geometry"/>
                </mxCell>
                <mxCell id="12" value="+" style="text;html=1;align=center;verticalAlign=middle;resizable=0;points=[];autosize=1;strokeColor=none;fillColor=none;" parent="1" vertex="1">
                    <mxGeometry x="190" y="380" width="30" height="30" as="geometry"/>
                </mxCell>
                <mxCell id="13" value="Bonnie Zhu&lt;br&gt;TEJ3M&lt;br&gt;Unit #4-15" style="text;html=1;align=left;verticalAlign=middle;resizable=0;points=[];autosize=1;strokeColor=none;fillColor=none;" parent="1" vertex="1">
                    <mxGeometry x="165" y="235" width="80" height="60" as="geometry"/>
                </mxCell>
                <mxCell id="166" style="edgeStyle=orthogonalEdgeStyle;rounded=0;html=1;exitX=1;exitY=0.12;exitDx=0;exitDy=0;entryX=0.5;entryY=0;entryDx=0;entryDy=0;fontSize=13;fontColor=#FFFFFF;endArrow=none;endFill=0;startArrow=none;" parent="1" source="176" target="23" edge="1">
                    <mxGeometry relative="1" as="geometry">
                        <Array as="points">
                            <mxPoint x="272" y="522"/>
                        </Array>
                    </mxGeometry>
                </mxCell>
                <mxCell id="167" style="edgeStyle=orthogonalEdgeStyle;rounded=0;html=1;exitX=1;exitY=0.88;exitDx=0;exitDy=0;entryX=1;entryY=0.5;entryDx=0;entryDy=0;fontSize=13;fontColor=#FFFFFF;endArrow=none;endFill=0;" parent="1" source="14" target="150" edge="1">
                    <mxGeometry relative="1" as="geometry"/>
                </mxCell>
                <mxCell id="197" style="edgeStyle=orthogonalEdgeStyle;rounded=0;html=1;exitX=0;exitY=0.5;exitDx=0;exitDy=0;entryX=0;entryY=0.5;entryDx=0;entryDy=0;endArrow=none;endFill=0;" edge="1" parent="1" source="14" target="196">
                    <mxGeometry relative="1" as="geometry"/>
                </mxCell>
                <mxCell id="14" value="" style="shape=mxgraph.electrical.electro-mechanical.twoWaySwitch;aspect=fixed;elSwitchState=2;direction=west;flipV=0;rotation=0;" parent="1" vertex="1">
                    <mxGeometry x="297.25" y="287.87" width="70" height="24.27" as="geometry"/>
                </mxCell>
                <mxCell id="153" style="edgeStyle=orthogonalEdgeStyle;rounded=0;html=1;entryX=0;entryY=0.5;entryDx=0;entryDy=0;entryPerimeter=0;fontSize=13;fontColor=#FFFFFF;endArrow=none;endFill=0;exitX=1;exitY=0.5;exitDx=0;exitDy=0;" parent="1" source="23" target="3" edge="1">
                    <mxGeometry relative="1" as="geometry">
                        <mxPoint x="220" y="620" as="sourcePoint"/>
                    </mxGeometry>
                </mxCell>
                <mxCell id="23" value="" style="ellipse;whiteSpace=wrap;html=1;aspect=fixed;strokeColor=#000000;fillColor=#000000;" parent="1" vertex="1">
                    <mxGeometry x="267.25" y="660" width="10" height="10" as="geometry"/>
                </mxCell>
                <mxCell id="31" value="&lt;div style=&quot;text-align: left; font-size: 13px;&quot;&gt;&lt;font style=&quot;font-size: 13px;&quot; color=&quot;#ffffff&quot; face=&quot;ArtifaktElement-Medium, sans-serif&quot;&gt;XOR Gate with Gates&lt;/font&gt;&lt;/div&gt;&lt;div style=&quot;text-align: left; font-size: 13px;&quot;&gt;&lt;font style=&quot;font-size: 13px;&quot; color=&quot;#ffffff&quot; face=&quot;ArtifaktElement-Medium, sans-serif&quot;&gt;&lt;br&gt;&lt;/font&gt;&lt;/div&gt;&lt;div style=&quot;text-align: left; font-size: 13px;&quot;&gt;&lt;font style=&quot;font-size: 13px;&quot; color=&quot;#ffffff&quot; face=&quot;ArtifaktElement-Medium, sans-serif&quot;&gt;A | Output&lt;/font&gt;&lt;/div&gt;&lt;div style=&quot;text-align: left; font-size: 13px;&quot;&gt;&lt;font style=&quot;font-size: 13px;&quot; color=&quot;#ffffff&quot; face=&quot;ArtifaktElement-Medium, sans-serif&quot;&gt;----------------&lt;/font&gt;&lt;/div&gt;&lt;div style=&quot;text-align: left; font-size: 13px;&quot;&gt;&lt;font style=&quot;font-size: 13px;&quot; color=&quot;#ffffff&quot; face=&quot;ArtifaktElement-Medium, sans-serif&quot;&gt;0 | 0 | 0&lt;/font&gt;&lt;/div&gt;&lt;div style=&quot;text-align: left; font-size: 13px;&quot;&gt;&lt;span style=&quot;color: rgb(255, 255, 255); font-family: ArtifaktElement-Medium, sans-serif;&quot;&gt;0 | 1 | 1&lt;/span&gt;&lt;font style=&quot;font-size: 13px;&quot; color=&quot;#ffffff&quot; face=&quot;ArtifaktElement-Medium, sans-serif&quot;&gt;&lt;br&gt;&lt;/font&gt;&lt;/div&gt;&lt;div style=&quot;text-align: left; font-size: 13px;&quot;&gt;&lt;span style=&quot;color: rgb(255, 255, 255); font-family: ArtifaktElement-Medium, sans-serif;&quot;&gt;1 | 0 | 1&lt;/span&gt;&lt;span style=&quot;color: rgb(255, 255, 255); font-family: ArtifaktElement-Medium, sans-serif;&quot;&gt;&lt;br&gt;&lt;/span&gt;&lt;/div&gt;&lt;div style=&quot;text-align: left; font-size: 13px;&quot;&gt;&lt;span style=&quot;color: rgb(255, 255, 255); font-family: ArtifaktElement-Medium, sans-serif;&quot;&gt;1 | 1 | 0&lt;/span&gt;&lt;span style=&quot;color: rgb(255, 255, 255); font-family: ArtifaktElement-Medium, sans-serif;&quot;&gt;&lt;br&gt;&lt;/span&gt;&lt;/div&gt;&lt;div style=&quot;text-align: left; font-size: 13px;&quot;&gt;&lt;br&gt;&lt;/div&gt;" style="text;html=1;align=center;verticalAlign=middle;resizable=0;points=[];autosize=1;strokeColor=none;fillColor=none;" parent="1" vertex="1">
                    <mxGeometry x="440" y="155" width="150" height="150" as="geometry"/>
                </mxCell>
                <mxCell id="57" value="input&amp;nbsp; A" style="text;html=1;align=center;verticalAlign=middle;resizable=0;points=[];autosize=1;strokeColor=none;fillColor=none;labelBackgroundColor=none;" parent="1" vertex="1">
                    <mxGeometry x="317.25" y="305" width="60" height="30" as="geometry"/>
                </mxCell>
                <mxCell id="107" value="220 Î©&lt;span style=&quot;&quot;&gt;&lt;br&gt;&lt;/span&gt;" style="text;html=1;align=center;verticalAlign=middle;resizable=0;points=[];autosize=1;strokeColor=none;fillColor=none;rotation=0;" parent="1" vertex="1">
                    <mxGeometry x="297.25" y="680" width="60" height="30" as="geometry"/>
                </mxCell>
                <mxCell id="150" value="" style="ellipse;whiteSpace=wrap;html=1;aspect=fixed;strokeColor=#000000;fillColor=#000000;" parent="1" vertex="1">
                    <mxGeometry x="165" y="295" width="10" height="10" as="geometry"/>
                </mxCell>
                <mxCell id="184" style="edgeStyle=orthogonalEdgeStyle;html=1;exitX=1;exitY=0.57;exitDx=0;exitDy=0;exitPerimeter=0;entryX=1;entryY=0.5;entryDx=0;entryDy=0;entryPerimeter=0;rounded=0;endArrow=none;endFill=0;" edge="1" parent="1" source="154" target="181">
                    <mxGeometry relative="1" as="geometry"/>
                </mxCell>
                <mxCell id="154" value="" style="verticalLabelPosition=bottom;shadow=0;dashed=0;align=center;html=1;verticalAlign=top;shape=mxgraph.electrical.opto_electronics.led_2;pointerEvents=1;direction=west;rotation=-180;" parent="1" vertex="1">
                    <mxGeometry x="414" y="630" width="100" height="70" as="geometry"/>
                </mxCell>
                <mxCell id="170" value="" style="edgeStyle=orthogonalEdgeStyle;rounded=0;html=1;exitX=1;exitY=0.5;exitDx=0;exitDy=0;entryX=0.5;entryY=1;entryDx=0;entryDy=0;fontSize=13;fontColor=#FFFFFF;endArrow=none;endFill=0;" parent="1" source="7" target="169" edge="1">
                    <mxGeometry relative="1" as="geometry">
                        <mxPoint x="170" y="395" as="sourcePoint"/>
                        <mxPoint x="170" y="337.13" as="targetPoint"/>
                    </mxGeometry>
                </mxCell>
                <mxCell id="173" style="edgeStyle=orthogonalEdgeStyle;rounded=0;html=1;entryX=1;entryY=0.88;entryDx=0;entryDy=0;endArrow=none;endFill=0;" parent="1" source="169" target="172" edge="1">
                    <mxGeometry relative="1" as="geometry"/>
                </mxCell>
                <mxCell id="169" value="" style="ellipse;whiteSpace=wrap;html=1;aspect=fixed;strokeColor=#000000;fillColor=#000000;" parent="1" vertex="1">
                    <mxGeometry x="165" y="365" width="10" height="10" as="geometry"/>
                </mxCell>
                <mxCell id="174" style="edgeStyle=orthogonalEdgeStyle;rounded=0;html=1;exitX=1;exitY=0.12;exitDx=0;exitDy=0;endArrow=none;endFill=0;entryX=1;entryY=0.5;entryDx=0;entryDy=0;" parent="1" source="172" target="176" edge="1">
                    <mxGeometry relative="1" as="geometry">
                        <mxPoint x="310.0000000000001" y="530" as="targetPoint"/>
                        <Array as="points">
                            <mxPoint x="344" y="379"/>
                            <mxPoint x="310" y="379"/>
                            <mxPoint x="310" y="525"/>
                        </Array>
                    </mxGeometry>
                </mxCell>
                <mxCell id="172" value="" style="shape=mxgraph.electrical.electro-mechanical.twoWaySwitch;aspect=fixed;elSwitchState=2;direction=west;flipV=0;rotation=0;" parent="1" vertex="1">
                    <mxGeometry x="344" y="355.73" width="70" height="24.27" as="geometry"/>
                </mxCell>
                <mxCell id="177" value="" style="edgeStyle=orthogonalEdgeStyle;rounded=0;html=1;exitX=1;exitY=0.12;exitDx=0;exitDy=0;entryX=0.5;entryY=0;entryDx=0;entryDy=0;fontSize=13;fontColor=#FFFFFF;endArrow=none;endFill=0;" parent="1" source="14" target="176" edge="1">
                    <mxGeometry relative="1" as="geometry">
                        <mxPoint x="297.25" y="309.22759999999994" as="sourcePoint"/>
                        <mxPoint x="272.25" y="610" as="targetPoint"/>
                    </mxGeometry>
                </mxCell>
                <mxCell id="176" value="" style="ellipse;whiteSpace=wrap;html=1;aspect=fixed;strokeColor=#000000;fillColor=#000000;" parent="1" vertex="1">
                    <mxGeometry x="267.25" y="520" width="10" height="10" as="geometry"/>
                </mxCell>
                <mxCell id="180" value="input B&amp;nbsp;&amp;nbsp;" style="text;html=1;align=center;verticalAlign=middle;resizable=0;points=[];autosize=1;strokeColor=none;fillColor=none;labelBackgroundColor=none;" parent="1" vertex="1">
                    <mxGeometry x="312.25" y="382.13" width="70" height="30" as="geometry"/>
                </mxCell>
                <mxCell id="187" style="edgeStyle=orthogonalEdgeStyle;rounded=0;html=1;exitX=0;exitY=0.75;exitDx=0;exitDy=0;exitPerimeter=0;entryX=1;entryY=0.5;entryDx=0;entryDy=0;entryPerimeter=0;endArrow=none;endFill=0;" edge="1" parent="1" source="181" target="185">
                    <mxGeometry relative="1" as="geometry"/>
                </mxCell>
                <mxCell id="188" style="edgeStyle=orthogonalEdgeStyle;rounded=0;html=1;exitX=0;exitY=0.25;exitDx=0;exitDy=0;exitPerimeter=0;entryX=1;entryY=0.5;entryDx=0;entryDy=0;entryPerimeter=0;endArrow=none;endFill=0;" edge="1" parent="1" source="181" target="186">
                    <mxGeometry relative="1" as="geometry"/>
                </mxCell>
                <mxCell id="181" value="" style="verticalLabelPosition=bottom;shadow=0;dashed=0;align=center;html=1;verticalAlign=top;shape=mxgraph.electrical.logic_gates.logic_gate;operation=or;rotation=-180;" parent="1" vertex="1">
                    <mxGeometry x="560" y="640" width="100" height="60" as="geometry"/>
                </mxCell>
                <mxCell id="191" style="edgeStyle=orthogonalEdgeStyle;rounded=0;html=1;exitX=0;exitY=0.5;exitDx=0;exitDy=0;exitPerimeter=0;endArrow=none;endFill=0;entryX=0;entryY=0.5;entryDx=0;entryDy=0;startArrow=none;" edge="1" parent="1" source="192" target="172">
                    <mxGeometry relative="1" as="geometry">
                        <mxPoint x="480" y="410" as="targetPoint"/>
                        <Array as="points"/>
                    </mxGeometry>
                </mxCell>
                <mxCell id="182" value="" style="verticalLabelPosition=bottom;shadow=0;dashed=0;align=center;html=1;verticalAlign=top;shape=mxgraph.electrical.logic_gates.inverter_2;rotation=0;" parent="1" vertex="1">
                    <mxGeometry x="525" y="490" width="100" height="60" as="geometry"/>
                </mxCell>
                <mxCell id="189" style="edgeStyle=orthogonalEdgeStyle;rounded=0;html=1;exitX=0;exitY=0.75;exitDx=0;exitDy=0;exitPerimeter=0;entryX=1;entryY=0.5;entryDx=0;entryDy=0;entryPerimeter=0;endArrow=none;endFill=0;" edge="1" parent="1" source="185" target="182">
                    <mxGeometry relative="1" as="geometry"/>
                </mxCell>
                <mxCell id="201" style="edgeStyle=orthogonalEdgeStyle;rounded=0;html=1;exitX=0;exitY=0.25;exitDx=0;exitDy=0;exitPerimeter=0;entryX=0.5;entryY=1;entryDx=0;entryDy=0;endArrow=none;endFill=0;" edge="1" parent="1" source="185" target="196">
                    <mxGeometry relative="1" as="geometry">
                        <Array as="points">
                            <mxPoint x="715" y="350"/>
                            <mxPoint x="435" y="350"/>
                        </Array>
                    </mxGeometry>
                </mxCell>
                <mxCell id="185" value="" style="verticalLabelPosition=bottom;shadow=0;dashed=0;align=center;html=1;verticalAlign=top;shape=mxgraph.electrical.logic_gates.logic_gate;operation=and;rotation=90;" vertex="1" parent="1">
                    <mxGeometry x="650" y="550" width="100" height="60" as="geometry"/>
                </mxCell>
                <mxCell id="200" style="edgeStyle=orthogonalEdgeStyle;rounded=0;html=1;exitX=0;exitY=0.75;exitDx=0;exitDy=0;exitPerimeter=0;endArrow=none;endFill=0;" edge="1" parent="1" source="186">
                    <mxGeometry relative="1" as="geometry">
                        <mxPoint x="445" y="370" as="targetPoint"/>
                    </mxGeometry>
                </mxCell>
                <mxCell id="186" value="" style="verticalLabelPosition=bottom;shadow=0;dashed=0;align=center;html=1;verticalAlign=top;shape=mxgraph.electrical.logic_gates.logic_gate;operation=and;rotation=90;" vertex="1" parent="1">
                    <mxGeometry x="760" y="555" width="100" height="60" as="geometry"/>
                </mxCell>
                <mxCell id="193" value="" style="edgeStyle=orthogonalEdgeStyle;rounded=0;html=1;exitX=0;exitY=0.5;exitDx=0;exitDy=0;exitPerimeter=0;endArrow=none;endFill=0;entryX=0;entryY=0.5;entryDx=0;entryDy=0;" edge="1" parent="1" source="182" target="192">
                    <mxGeometry relative="1" as="geometry">
                        <mxPoint x="414" y="367.865" as="targetPoint"/>
                        <mxPoint x="525" y="520" as="sourcePoint"/>
                        <Array as="points">
                            <mxPoint x="490" y="520"/>
                            <mxPoint x="490" y="368"/>
                        </Array>
                    </mxGeometry>
                </mxCell>
                <mxCell id="192" value="" style="ellipse;whiteSpace=wrap;html=1;aspect=fixed;strokeColor=#000000;fillColor=#000000;" vertex="1" parent="1">
                    <mxGeometry x="440" y="362.87" width="10" height="10" as="geometry"/>
                </mxCell>
                <mxCell id="198" style="edgeStyle=orthogonalEdgeStyle;rounded=0;html=1;exitX=0;exitY=0.5;exitDx=0;exitDy=0;exitPerimeter=0;entryX=1;entryY=0.5;entryDx=0;entryDy=0;endArrow=none;endFill=0;" edge="1" parent="1" source="194" target="196">
                    <mxGeometry relative="1" as="geometry"/>
                </mxCell>
                <mxCell id="199" style="edgeStyle=orthogonalEdgeStyle;rounded=0;html=1;exitX=1;exitY=0.5;exitDx=0;exitDy=0;exitPerimeter=0;entryX=0;entryY=0.25;entryDx=0;entryDy=0;entryPerimeter=0;endArrow=none;endFill=0;" edge="1" parent="1" source="194" target="186">
                    <mxGeometry relative="1" as="geometry"/>
                </mxCell>
                <mxCell id="194" value="" style="verticalLabelPosition=bottom;shadow=0;dashed=0;align=center;html=1;verticalAlign=top;shape=mxgraph.electrical.logic_gates.inverter_2;rotation=0;" vertex="1" parent="1">
                    <mxGeometry x="514" y="270.01" width="100" height="60" as="geometry"/>
                </mxCell>
                <mxCell id="196" value="" style="ellipse;whiteSpace=wrap;html=1;aspect=fixed;strokeColor=#000000;fillColor=#000000;fontStyle=1" vertex="1" parent="1">
                    <mxGeometry x="430" y="295" width="10" height="10" as="geometry"/>
                </mxCell>
            </root>
        </mxGraphModel>
    </diagram>
</mxfile>